<svg xmlns="http://www.w3.org/2000/svg" width="40" height="40" viewBox="0 0 40 40">
  <path id="Icon_awesome-phone-alt" data-name="Icon awesome-phone-alt" d="M38.859,28.266l-8.75-3.75a1.875,1.875,0,0,0-2.188.539l-3.875,4.734A28.958,28.958,0,0,1,10.2,15.946l4.734-3.875a1.87,1.87,0,0,0,.539-2.188l-3.75-8.75A1.888,1.888,0,0,0,9.578.048L1.453,1.923A1.875,1.875,0,0,0,0,3.75,36.246,36.246,0,0,0,36.25,40a1.875,1.875,0,0,0,1.828-1.453l1.875-8.125A1.9,1.9,0,0,0,38.859,28.266Z" transform="translate(0 0)" fill="#454545"/>
</svg>
